<?xml version="1.0" standalone="no"?><!DOCTYPE svg PUBLIC "-//W3C//DTD SVG 1.1//EN" "http://www.w3.org/Graphics/SVG/1.1/DTD/svg11.dtd"><svg t="1576062773294" class="icon" viewBox="0 0 1024 1024" version="1.1" xmlns="http://www.w3.org/2000/svg" p-id="1720" xmlns:xlink="http://www.w3.org/1999/xlink" width="200" height="200"><defs><style type="text/css"></style></defs><path d="M516.266667 733.866667c-121.457778 0-220.444444-98.986667-220.444445-220.444445s98.986667-220.444444 220.444445-220.444444 220.444444 98.986667 220.444444 220.444444-98.986667 220.444444-220.444444 220.444445z m0-398.222223c-98.133333 0-177.777778 79.644444-177.777778 177.777778s79.644444 177.777778 177.777778 177.777778 177.777778-79.644444 177.777777-177.777778-79.928889-177.777778-177.777777-177.777778z" fill="#4C35D3" p-id="1721"></path><path d="M321.137778 638.862222c-69.404444 0-104.96-13.368889-111.786667-42.382222-7.68-32.995556 30.72-88.462222 100.124445-117.76 10.808889-4.551111 23.324444 0.284444 27.875555 11.377778 4.551111 10.808889-0.284444 23.324444-11.377778 27.875555-50.915556 21.617778-73.386667 56.035556-75.093333 67.982223 5.973333 4.266667 29.866667 11.946667 87.893333 9.955555 54.897778-1.706667 124.302222-11.662222 195.128889-28.16 70.826667-16.213333 137.671111-37.546667 187.733334-59.733333 52.622222-23.324444 70.826667-40.675556 74.524444-47.217778-6.257778-6.826667-36.693333-20.764444-101.831111-16.213333-11.662222 0.853333-21.902222-8.248889-22.755556-19.911111-0.853333-11.662222 8.248889-21.902222 19.911111-22.755556 82.204444-5.404444 138.524444 13.937778 147.057778 50.346667 6.826667 29.582222-21.048889 58.026667-87.324444 89.315555-54.044444 25.6-128 49.777778-207.928889 67.982222-79.928889 18.488889-157.013333 28.728889-216.746667 29.297778h-5.404444z m-70.257778-51.2z m546.417778-125.44z" fill="#FF4D7C" p-id="1722"></path><path d="M322.56 580.835556c-9.671111 0-18.488889-6.542222-20.764444-16.497778-3.982222-16.497778-5.973333-33.848889-5.973334-50.915556 0-121.457778 98.986667-220.444444 220.444445-220.444444 102.684444 0 190.862222 69.688889 214.471111 169.528889 2.844444 11.377778-4.266667 23.04-15.928889 25.6-11.377778 2.844444-23.04-4.266667-25.6-15.928889-19.057778-80.497778-90.168889-136.533333-172.942222-136.533334-98.133333 0-177.777778 79.644444-177.777778 177.777778 0 13.937778 1.706667 27.875556 4.835555 41.244445 2.844444 11.377778-4.266667 23.04-15.928888 25.6-1.706667 0.284444-3.413333 0.568889-4.835556 0.568889z" fill="#4C35D3" p-id="1723"></path></svg>